# xmcd
#
# Track frame offsets: 
#        150
#        17151
#        36681
#        60126
#        84832
#        103164
#        124345
#        140301
#        155818
#        177535
#        201070
#        230345
#        246691
#
# Disc length: 3594 seconds
#
# Revision: 0
# Processed by: cddbd v1.5.2PL0 Copyright (c) Steve Scherf et al.
# Submitted via: ExactAudioCopy v1.3
#
DISCID=b80e080d
DTITLE=Billy Hector - Some Day Baby
DYEAR=2018
DGENRE=Funky Blues, Blues Rock
TTITLE0=Wizard of Babylon
TTITLE1=Someday Baby
TTITLE2=Butt Naked and Funk
TTITLE3=Hit the Road
TTITLE4=Busy Man
TTITLE5=Moonlight In Her Eyes
TTITLE6=Bareback
TTITLE7=Jolene
TTITLE8=Alabama Bound
TTITLE9=On Your Bond
TTITLE10=Whiskey
TTITLE11=Creeper
TTITLE12=Road to Happiness
EXTD=
EXTT0=
EXTT1=
EXTT2=
EXTT3=
EXTT4=
EXTT5=
EXTT6=
EXTT7=
EXTT8=
EXTT9=
EXTT10=
EXTT11=
EXTT12=
PLAYORDER=
